<?xml version="1.0" encoding="utf-8"?>
<svg version="1.1" id="Layer_1" xmlns="http://www.w3.org/2000/svg" xmlns:xlink="http://www.w3.org/1999/xlink" x="0px" y="0px"
	 viewBox="0 0 335.7 782.8" style="enable-background:new 0 0 335.7 782.8;" xml:space="preserve">
<style type="text/css">
	.st0{fill:#ffffff;}
</style>
<polygon id="Bildmarke" class="st0" points="69.8,0 69.8,173 0,173 0,321.2 69.8,321.2 69.8,486.6 69.8,565.1 69.8,579.1
	70.4,592.6 71.4,605.7 72.8,618.2 74.7,630.4 76.6,642 79.3,653 82,663.7 85.4,673.8 89,683.2 93,692.4 97.3,701.3 102.2,709.5
	107.4,717.2 110.1,720.8 112.8,724.2 115.8,727.5 119,730.9 122,734.3 125.3,737.3 128.7,740.3 132,743.1 139.4,748.6 147,753.5
	155.2,758.4 164.1,762.6 173.2,766.3 182.7,769.7 192.8,772.7 203.4,775.5 214.4,777.6 226.1,779.4 237.9,780.9 250.5,781.9
	263.2,782.5 335.7,782.8 335.7,650.2 328.6,649.9 323.7,649.6 319.1,648.9 314.6,648.4 310.3,647.4 306,646.2 302.1,644.7
	298.1,643.2 294.5,641 290.8,639.1 287.4,636.8 284.4,634.3 281.3,631.6 278.3,628.5 275.6,625.5 272.8,621.8 270.4,618.4
	268.2,614.4 266.1,610.5 263.9,606.2 262.1,601.6 260.6,596.7 259.1,591.9 257.8,586.7 256.6,581.5 255.4,575.6 254.5,569.9
	253.9,563.8 253.3,557.6 253,551.3 252.6,544.5 252.6,537.5 252.6,486.6 252.6,313.6 178.7,313.6 178.7,180.6 252.6,180.6 252.6,0
	"/>
</svg>
